# xmcd CD database file
#
# Track frame offsets:
#	150
#	20860
#	37415
#	55487
#	77080
#	94692
#	118037
#	139375
#	153362
#	177790
#	202980
#
# Disc length: 3013 seconds
#
# Revision: 3
# Processed by: cddbd v1.5.2PL0 Copyright (c) Steve Scherf et al.
# Submitted via: CDex 1.70beta2
#
DISCID=9b0bc30b
DTITLE=Buddah Heads - Blues Had A Baby
DYEAR=1994
DGENRE=Blues
TTITLE0=buddah heads - are you really satisfied
TTITLE1=buddah heads - under the moonlit sky
TTITLE2=buddah heads - talkin' trash
TTITLE3=buddah heads - softly i fall
TTITLE4=buddah heads - brother cain
TTITLE5=buddah heads - house of shame
TTITLE6=buddah heads - dodge the rain
TTITLE7=buddah heads - little miss lover
TTITLE8=buddah heads - blue charade
TTITLE9=buddah heads - run
TTITLE10=buddah heads - world of trouble
EXTD=YEAR: 1994
EXTT0=
EXTT1=
EXTT2=
EXTT3=
EXTT4=
EXTT5=
EXTT6=
EXTT7=
EXTT8=
EXTT9=
EXTT10=
PLAYORDER=
